<svg xmlns="http://www.w3.org/2000/svg"><symbol viewBox="0 0 24.999999 25.000001" id="icon--arrow--right"><title>arrow--right</title><path d="M13.176 22.543L24.5 12.433 13.176 2.455l-2.247 2.471 6.699 5.87H.5v3.404h17.302l-6.828 6.05z"/></symbol><symbol viewBox="0 0 24.999999 25.000001" id="icon--bubbles"><title>bubbles</title><g fill="#a8abac"><path d="M23.595 11.902a15.969 15.969 0 0 0-.286-1.993c-.2-.92-.624-2.01-1.26-2.811.024.156.051.308.07.47.036.315.057.562.076.897.021.42.028.839.024 1.254l.002.083v.094l-.003.025c-.033 1.716-.306 3.195-.836 4.524a6.882 6.882 0 0 1-1.192 1.966c-.876.984-1.9 1.59-3.434 2.028-1.146.318-2.42.506-3.896.575-.642.088-1.24.132-1.83.132-.329 0-.659-.012-.988-.036a9.364 9.364 0 0 1-1.263.904c1.074.285 2.251.443 3.5.497.55.079 1.113.127 1.691.127.514 0 1.02-.033 1.511-.095 2.083 2.074 4.487 2.446 6.89 2.5v-.507c-1.222-.596-2.208-1.656-2.32-2.877 2.13-.757 3.184-2.301 3.463-4.08.132-.842.166-1.757.14-2.641 0-.048.01-.095.01-.143a6.61 6.61 0 0 0-.069-.893z"/><path d="M11.028 1.958c.08 0 .157.008.236.01.366.008.735.02 1.127.042 1.237.07 2.215.18 3.274.408.42.09.783.186 1.157.31.186.06.423.149.594.22.086.037.06.025.142.063.083.037.191.088.271.128.4.2.748.43 1.056.698.74.642 1.168 1.402 1.46 2.415.023.084.016.054.037.14.113.426.194.877.25 1.349.032.284.05.507.066.8.021.417.027.824.022 1.223l.002.04c0 .016-.002.03-.003.045-.024 1.449-.23 2.788-.728 4.037a5.394 5.394 0 0 1-.922 1.53c-.702.788-1.48 1.228-2.715 1.58-1.108.309-2.335.469-3.633.526a11.88 11.88 0 0 1-1.692.127c-.514 0-1.018-.033-1.51-.095-2.083 2.074-4.488 2.446-6.89 2.5v-.507c1.222-.596 2.208-1.656 2.32-2.877-2.13-.758-3.184-2.301-3.464-4.08-.132-.842-.165-1.757-.139-2.641 0-.048-.01-.095-.01-.143 0-.302.026-.6.067-.893.064-.752.167-1.444.286-1.993.266-1.22.921-2.737 1.947-3.486.132-.098.32-.22.468-.307l.126-.07a6.767 6.767 0 0 1 1.27-.516c.652-.198 1.272-.315 2.055-.414.45-.054.875-.09 1.352-.118.24-.015.36-.02.603-.028.121-.005.283-.008.406-.012.243-.006.478-.008.71-.008.102 0 .204.004.306.005.032-.004.064-.007.096-.008"/></g></symbol><symbol viewBox="0 0 16 28" id="icon--caret--down"><title>caret--down</title><path d="M16 11q0 .406-.297.703l-7 7Q8.406 19 8 19t-.703-.297l-7-7Q0 11.406 0 11t.297-.703T1 10h14q.406 0 .703.297T16 11z"/></symbol><symbol viewBox="0 0 10 28" id="icon--caret--left"><title>caret--left</title><path d="M10 7v14q0 .406-.297.703T9 22t-.703-.297l-7-7Q1 14.406 1 14t.297-.703l7-7Q8.594 6 9 6t.703.297T10 7z"/></symbol><symbol viewBox="0 0 10 28" id="icon--caret--right"><title>caret--right</title><path d="M9 14q0 .406-.297.703l-7 7Q1.406 22 1 22t-.703-.297T0 21V7q0-.406.297-.703T1 6t.703.297l7 7Q9 13.594 9 14z"/></symbol><symbol viewBox="0 0 16 28" id="icon--caret--up"><title>caret--up</title><path d="M16 19q0 .406-.297.703T15 20H1q-.406 0-.703-.297T0 19t.297-.703l7-7Q7.594 11 8 11t.703.297l7 7Q16 18.594 16 19z"/></symbol><symbol viewBox="0 0 32 32" id="icon--checkmark--green"><title>checkmark--green</title><path fill="#60b044" d="M27 4L12 19l-7-7-5 5 12 12L32 9z"/></symbol><symbol viewBox="0 0 32 32" id="icon--checkmark"><title>checkmark</title><path d="M27 4L12 19l-7-7-5 5 12 12L32 9z"/></symbol><symbol viewBox="0 0 24.999758 25.079001" id="icon--close--inverted"><title>close--inverted</title><g fill="#fff"><path d="M11.977 0c-.298 0-.6.004-.914.013-.158.006-.368.011-.523.019-.314.013-.469.021-.778.045-.615.045-1.164.104-1.743.191C7.011.425 6.21.615 5.37.933c-.6.227-1.145.5-1.635.832l-.163.111c-.19.14-.434.336-.604.494C1.645 3.575.8 6.017.457 7.979.061 10.24-.198 13.992.194 17.1c.393 3.109 1.94 5.791 5.19 6.867 1.13.414 2.354.67 3.744.848 1.417.168 2.812.264 4.161.264 2.192 0 4.257-.257 6.077-.887 1.592-.568 2.596-1.275 3.5-2.543.485-.682.895-1.555 1.19-2.462.83-2.601 1.034-5.438.91-8.599-.02-.472-.045-.83-.087-1.287a18.91 18.91 0 0 0-.32-2.17c-.027-.137-.018-.089-.048-.225-.377-1.629-.929-2.852-1.883-3.885a6.554 6.554 0 0 0-1.36-1.124 8.618 8.618 0 0 0-.349-.207c-.107-.06-.072-.041-.183-.099a9.945 9.945 0 0 0-.766-.355c-.482-.199-.95-.353-1.492-.499-1.365-.364-2.626-.541-4.222-.655A32.476 32.476 0 0 0 11.977 0z"/><path fill="#000" d="M12.5 15.45l4.541 4.541 2.46-2.459-4.542-4.541L19.5 8.45l-2.459-2.459-4.54 4.541-4.542-4.541L5.5 8.45l4.541 4.541-4.54 4.541 2.458 2.459z"/></g></symbol><symbol viewBox="0 0 24.999758 25.079001" id="icon--close--simple"><title>close--simple</title><path d="M12.5 15.45l4.541 4.541 2.46-2.459-4.542-4.541L19.5 8.45l-2.459-2.459-4.54 4.541-4.542-4.541L5.5 8.45l4.541 4.541-4.54 4.541 2.458 2.459z"/></symbol><symbol viewBox="0 0 24.999758 25.079001" id="icon--close"><title>close</title><path d="M11.977 0c-.298 0-.6.004-.914.013-.158.006-.368.011-.523.019-.314.013-.469.021-.778.045-.615.045-1.164.104-1.743.191C7.011.425 6.21.615 5.37.933c-.6.227-1.145.5-1.635.832l-.163.111c-.19.14-.434.336-.604.494C1.645 3.575.8 6.017.457 7.979.061 10.24-.198 13.992.194 17.1c.393 3.109 1.94 5.791 5.19 6.867 1.13.414 2.354.67 3.744.848 1.417.168 2.812.264 4.161.264 2.192 0 4.257-.257 6.077-.887 1.592-.568 2.596-1.275 3.5-2.543.485-.682.895-1.555 1.19-2.462.83-2.601 1.034-5.438.91-8.599-.02-.472-.045-.83-.087-1.287a18.91 18.91 0 0 0-.32-2.17c-.027-.137-.018-.089-.048-.225-.377-1.629-.929-2.852-1.883-3.885a6.554 6.554 0 0 0-1.36-1.124 8.618 8.618 0 0 0-.349-.207c-.107-.06-.072-.041-.183-.099a9.945 9.945 0 0 0-.766-.355c-.482-.199-.95-.353-1.492-.499-1.365-.364-2.626-.541-4.222-.655A32.476 32.476 0 0 0 11.977 0z"/><path fill="#fff" d="M12.5 15.45l4.541 4.541 2.46-2.459-4.542-4.541L19.5 8.45l-2.459-2.459-4.54 4.541-4.542-4.541L5.5 8.45l4.541 4.541-4.54 4.541 2.458 2.459z"/></symbol><symbol viewBox="0 0 24.154659 24.15466" id="icon--cross"><title>cross</title><g stroke-miterlimit="10" fill="none" stroke="#ee342e" stroke-width="6"><path d="M2.121 22.034L22.033 2.122M2.121 2.122l19.912 19.912"/></g></symbol><symbol viewBox="0 0 97 75" id="icon--default"><title>default</title><path d="M10.786 34.365c-2.539-.92-4.028-1.486-4.028-3.064 0-1.445 1.139-2.275 3.635-2.275 2.539 0 5.078.83 6.479 1.486v-5.777c-1.531-.568-3.983-1.227-7.004-1.227-5.691 0-9.851 2.541-9.851 8.057 0 4.555 2.584 6.655 5.34 7.838 4.204 1.836 6.086 1.879 6.086 3.98 0 1.578-1.271 2.539-4.158 2.539-2.714 0-5.21-.961-7.224-1.926v5.91c2.188.965 4.903 1.576 8.45 1.576 5.69 0 10.068-2.846 10.068-8.406 0-5.602-3.634-7.221-7.793-8.711zM96.908 31.664a73.122 73.122 0 0 0-.258-3.842c-.211-2.268-.521-4.434-.957-6.484-.088-.41-.059-.271-.148-.68-1.123-4.865-2.777-8.523-5.629-11.615a19.762 19.762 0 0 0-4.066-3.357 28.836 28.836 0 0 0-1.047-.619c-.323-.179-.213-.122-.543-.294a28.623 28.623 0 0 0-2.293-1.066 35.203 35.203 0 0 0-4.459-1.488C73.426 1.123 69.656.594 64.889.256A93.772 93.772 0 0 0 55.35.041c-.473.014-1.098.033-1.57.055-.936.041-1.398.068-2.32.137-1.842.133-3.48.309-5.208.572-3.019.465-5.411 1.037-7.928 1.984-1.795.68-3.423 1.498-4.891 2.49-.293.199-.195.131-.483.336-.574.412-1.293 1-1.805 1.473-3.956 3.598-6.228 9.717-7.504 16.77h6.219V51.134h-7.005c1.553 10.307 5.798 17.316 15.512 20.531 3.381 1.232 7.042 2.006 11.196 2.533 11.119 1.312 21.82 1.186 30.609-1.859 4.76-1.699 7.76-3.812 10.465-7.607 1.445-2.035 2.676-4.646 3.551-7.357 2.482-7.775 3.095-16.258 2.72-25.711zM59.621 41.932c-1.355 4.979-5.268 9.201-13.254 9.201h-9.808V23.904h9.938c10.027 0 13.705 6.564 13.705 13.615a16.835 16.835 0 0 1-.581 4.413zm29.697-9.604V51.155h-7.312l-2.518-4.049-.701-1.123-2.51-4.041-2.766-4.446c-.736-1.164-1.598-2.59-2.182-3.758-.076-.146-.162-.307-.225-.445.002.1.008.207.012.305.045 1.166.117 2.51.117 3.68v13.878h-6.041V23.879h7.223l1.822 2.92c2.096 3.178 4.1 6.373 5.928 9.502l.744 1.195c.41.68.84 1.432 1.24 2.168.451.834.867 1.646 1.168 2.297-.086-1.227-.043-3.107-.043-4.247V23.878h6.042v8.45z"/><path d="M45.971 29.417h-2.583V45.529h2.32c3.803 0 5.743-1.398 6.653-3.598.516-1.246.703-2.75.703-4.413 0-4.64-1.357-8.101-7.093-8.101z"/></symbol><symbol viewBox="0 0 24.999281 25.07235" id="icon--download"><title>download</title><path d="M11.44 0c-.125.002-.247.002-.376.006-.158.006-.369.011-.524.02-.314.013-.47.02-.78.044-.614.045-1.162.103-1.741.19-1.008.157-1.81.348-2.65.666-.602.227-1.145.5-1.635.832l-.163.111c-.19.14-.435.336-.605.494C1.644 3.568.799 6.01.456 7.971c-.395 2.26-.653 6.013-.261 9.12.392 3.11 1.939 5.792 5.189 6.868 1.129.414 2.354.67 3.744.848 1.417.167 2.812.265 4.16.265 2.192 0 4.258-.258 6.078-.888 1.592-.568 2.596-1.275 3.5-2.543.484-.682.894-1.554 1.188-2.461.83-2.601 1.036-5.439.912-8.6-.021-.472-.046-.829-.088-1.285a18.85 18.85 0 0 0-.318-2.17c-.027-.137-.019-.089-.049-.225-.377-1.629-.929-2.852-1.883-3.884a6.498 6.498 0 0 0-1.361-1.125 8.606 8.606 0 0 0-.348-.207c-.107-.06-.072-.04-.183-.098a10.33 10.33 0 0 0-.766-.355c-.482-.198-.95-.353-1.492-.499C17.113.368 15.85.19 14.255.076c-.245-.017-.463-.013-.697-.025v16.736l3.652-4.277 1.54 1.398-6.21 7.05-6.29-7.05 1.425-1.369 3.766 4.248V0z"/></symbol><symbol viewBox="0 0 24 24" id="icon--expand--less"><title>expand--less</title><path d="M12 8.016l6 6-1.406 1.406L12 10.828l-4.594 4.594L6 14.016z"/></symbol><symbol viewBox="0 0 24 24" id="icon--expand--more"><title>expand--more</title><path d="M16.594 8.578L18 9.984l-6 6-6-6 1.406-1.406L12 13.172z"/></symbol><symbol viewBox="0 0 24.999758 25.079001" id="icon--facebook"><title>facebook</title><path d="M11.976 0c-.298 0-.6.004-.914.013-.158.006-.368.011-.523.019-.314.013-.469.021-.777.045a22.45 22.45 0 0 0-1.743.19C7.011.425 6.21.614 5.37.932a7.867 7.867 0 0 0-1.635.832l-.163.111a7.42 7.42 0 0 0-.604.494C1.645 3.574.8 6.015.457 7.978.061 10.239-.198 13.992.194 17.1c.393 3.109 1.94 5.791 5.19 6.867 1.13.413 2.354.67 3.744.848 1.417.167 2.812.264 4.161.264 2.192 0 4.257-.257 6.077-.887 1.592-.568 2.596-1.275 3.5-2.543.485-.682.895-1.555 1.19-2.462.83-2.601 1.034-5.439.91-8.599-.02-.471-.045-.83-.087-1.286a18.877 18.877 0 0 0-.32-2.17c-.027-.138-.018-.089-.048-.225-.377-1.629-.929-2.853-1.883-3.885a6.554 6.554 0 0 0-1.36-1.124 8.618 8.618 0 0 0-.349-.207c-.107-.06-.072-.042-.183-.1a10.505 10.505 0 0 0-.765-.355A11.97 11.97 0 0 0 18.48.737C17.114.373 15.853.196 14.257.082A33.175 33.175 0 0 0 11.977 0z"/><path d="M13.664 20.063v-6.864h2.304l.345-2.675h-2.648V8.816c0-.775.214-1.303 1.326-1.303h1.417V5.12a18.871 18.871 0 0 0-2.064-.105c-2.043 0-3.44 1.247-3.44 3.536v1.973h-2.31v2.675h2.31v6.864h2.76z" fill="#fff"/></symbol><symbol viewBox="0 0 25 25.000001" id="icon--feed"><title>feed</title><path d="M11.979 0c-.297 0-.6.004-.911.013-.158.006-.367.01-.521.019-.313.013-.468.02-.776.045-.613.045-1.16.103-1.737.19C7.029.424 6.23.613 5.392.93c-.6.226-1.142.498-1.63.83-.098.066-.067.044-.162.11-.19.14-.433.335-.603.493C1.68 3.563.837 5.998.495 7.953c-.393 2.255-.653 5.995-.262 9.093.39 3.1 1.934 5.773 5.174 6.846 1.125.412 2.346.667 3.732.845 1.413.166 2.803.263 4.147.263 2.185 0 4.245-.256 6.059-.884 1.587-.566 2.588-1.271 3.489-2.535.482-.68.892-1.55 1.185-2.454.828-2.593 1.032-5.421.908-8.572-.02-.47-.045-.828-.087-1.282-.07-.758-.174-1.48-.319-2.163-.027-.137-.018-.09-.047-.225-.376-1.624-.927-2.843-1.878-3.872a6.47 6.47 0 0 0-1.356-1.12 8.591 8.591 0 0 0-.347-.206c-.107-.06-.072-.041-.183-.099-.22-.115-.525-.256-.763-.354-.48-.197-.947-.352-1.487-.497-1.361-.363-2.618-.54-4.21-.653A31.826 31.826 0 0 0 11.98 0z"/><path d="M8.165 19.197a1.824 1.824 0 0 1-1.828-1.82c0-1.003.82-1.826 1.828-1.826 1.013 0 1.831.823 1.831 1.825a1.824 1.824 0 0 1-1.83 1.821z" fill="#fff"/><path d="M12.76 19.213a6.39 6.39 0 0 0-1.881-4.55 6.377 6.377 0 0 0-4.54-1.885v-2.633c4.997 0 9.066 4.067 9.066 9.068h-2.644z" fill="#fff"/><path d="M17.43 19.213c0-6.12-4.975-11.1-11.088-11.1V5.478c7.57 0 13.73 6.163 13.73 13.734H17.43z" fill="#fff"/></symbol><symbol viewBox="0 0 25.000521 25.08" id="icon--file--text"><title>file--text</title><path d="M11.977 0c-.298 0-.6.004-.914.013-.159.006-.368.011-.524.019-.314.013-.468.021-.777.045a22.45 22.45 0 0 0-1.743.19C7.011.425 6.21.614 5.37.933c-.6.227-1.145.5-1.635.832l-.163.111a7.29 7.29 0 0 0-.604.494C1.645 3.575.8 6.016.457 7.979c-.395 2.262-.655 6.014-.263 9.122.392 3.109 1.94 5.791 5.19 6.867 1.13.414 2.354.67 3.744.848 1.417.167 2.812.264 4.161.264 2.192 0 4.258-.257 6.078-.887 1.592-.568 2.595-1.275 3.5-2.543.484-.682.895-1.555 1.19-2.462.83-2.601 1.034-5.438.91-8.599-.02-.471-.045-.83-.087-1.286a18.877 18.877 0 0 0-.32-2.17c-.027-.137-.018-.089-.048-.225-.377-1.629-.929-2.852-1.883-3.885a6.554 6.554 0 0 0-1.36-1.124 8.618 8.618 0 0 0-.349-.207c-.107-.06-.072-.041-.183-.1a10.337 10.337 0 0 0-.766-.355c-.482-.199-.95-.353-1.492-.499-1.366-.364-2.626-.541-4.222-.655A32.561 32.561 0 0 0 11.977 0z" fill="#a8abac"/><g fill="#fff"><path d="M13.215 3.903H6.408v17.274h12.424V9.52l-5.617-5.617zm4.4 16.056H7.625V5.121h5.44v4.548h4.548v10.29z"/><path d="M9.234 11.402h6.835v1.218H9.234zM9.234 14.242h6.835v1.218H9.234zM9.234 17.082h6.835V18.3H9.234z"/></g></symbol><symbol viewBox="0 0 25.000515 25.079001" id="icon--github"><title>github</title><path d="M24.967 10.59c-.02-.471-.045-.83-.087-1.286a18.877 18.877 0 0 0-.32-2.17c-.027-.137-.019-.089-.048-.225-.378-1.629-.93-2.852-1.883-3.885A6.503 6.503 0 0 0 21.267 1.9a7.422 7.422 0 0 0-.348-.207c-.107-.061-.072-.041-.183-.1a10.337 10.337 0 0 0-.766-.355c-.482-.199-.95-.353-1.492-.499-1.366-.364-2.626-.541-4.222-.655a31.927 31.927 0 0 0-3.193-.071c-.159.006-.368.011-.524.019-.314.013-.468.021-.777.045a22.45 22.45 0 0 0-1.743.19C7.011.425 6.21.614 5.37.932a7.867 7.867 0 0 0-1.635.832l-.163.111a7.093 7.093 0 0 0-.604.494C1.645 3.574.8 6.015.457 7.978.062 10.239-.198 13.992.194 17.1c.392 3.109 1.94 5.791 5.19 6.867 1.13.414 2.354.67 3.744.848 1.417.167 2.812.264 4.161.264 2.192 0 4.258-.257 6.078-.887 1.592-.568 2.595-1.275 3.5-2.543.484-.682.895-1.555 1.188-2.462.832-2.599 1.036-5.437.912-8.597z"/><path d="M14.594 18.813c.432-.042.83-.1 1.19-.174a9.074 9.074 0 0 0 1.146-.324c.404-.142.764-.31 1.084-.505.32-.196.627-.449.922-.76.295-.311.542-.665.742-1.059.2-.395.357-.869.474-1.42a8.896 8.896 0 0 0 .174-1.826c0-1.288-.419-2.385-1.258-3.29.382-.997.34-2.081-.125-3.252l-.312-.037c-.216-.025-.604.066-1.165.274-.56.208-1.19.549-1.888 1.022A11.476 11.476 0 0 0 12.5 7.05a11.21 11.21 0 0 0-3.066.412 10.74 10.74 0 0 0-1.252-.742 6.531 6.531 0 0 0-.948-.399 3.257 3.257 0 0 0-.66-.131 2.36 2.36 0 0 0-.393-.013.808.808 0 0 0-.125.025c-.465 1.18-.506 2.264-.125 3.252-.839.905-1.258 2.001-1.258 3.29 0 .665.058 1.273.175 1.826.116.553.274 1.026.474 1.42.2.395.447.748.742 1.059.295.311.602.565.922.76.32.195.681.364 1.084.505.403.141.785.25 1.147.324.362.074.758.133 1.19.175-.68.465-1.022 1.204-1.022 2.218v2.306c1.386.161 2.704.246 3.903.246.827 0 1.598-.052 2.338-.13v-2.42c.002-1.007-.342-1.747-1.032-2.22z" fill="#fff"/></symbol><symbol viewBox="0 0 24.919136 24.998" id="icon--google-plus"><title>google-plus</title><path d="M11.939 0c-.297 0-.6.004-.911.013-.158.006-.367.011-.522.019-.313.013-.467.021-.775.045-.613.045-1.16.103-1.737.19C6.989.424 6.19.613 5.352.93a7.817 7.817 0 0 0-1.63.829l-.162.11c-.191.14-.432.335-.602.492C1.64 3.562.798 5.996.456 7.952c-.394 2.254-.653 5.994-.262 9.093.39 3.099 1.934 5.771 5.173 6.845 1.126.412 2.347.668 3.732.845 1.412.167 2.803.263 4.147.263 2.185 0 4.244-.256 6.058-.884 1.587-.565 2.587-1.271 3.489-2.535.483-.68.892-1.55 1.185-2.454.828-2.592 1.032-5.421.908-8.57a24.979 24.979 0 0 0-.087-1.282c-.07-.757-.174-1.48-.32-2.163-.026-.137-.017-.089-.047-.224-.376-1.624-.926-2.844-1.876-3.872a6.45 6.45 0 0 0-1.357-1.12 7.04 7.04 0 0 0-.347-.206c-.107-.061-.072-.041-.182-.099a9.87 9.87 0 0 0-.763-.354A11.89 11.89 0 0 0 18.42.738C17.059.375 15.802.199 14.212.085A31.242 31.242 0 0 0 11.939 0z"/><g fill="#fff"><path d="M12.982 8.424l-.543.546c-.322.322-.646.644-.966.968-.056.058-.091.069-.158.009-1.146-1.035-3.03-1.018-4.226.155-.787.771-1.134 1.714-1 2.811.19 1.53 1.419 2.731 2.903 2.866.817.075 1.588-.082 2.263-.577.518-.381.837-.895.978-1.521.004-.021.004-.044.008-.077-.054-.003-.102-.009-.15-.009l-2.646-.003c-.147 0-.148 0-.148-.148 0-.643 0-1.285-.003-1.928-.001-.096.03-.122.125-.122 1.642.003 3.285.003 4.927 0 .077 0 .12.015.134.101.219 1.368.09 2.689-.575 3.924-.696 1.289-1.784 2.087-3.203 2.412-1.711.393-3.307.112-4.722-.957-1.181-.891-1.898-2.084-2.11-3.549-.265-1.821.258-3.407 1.549-4.72a5.234 5.234 0 0 1 3.159-1.556c1.625-.202 3.07.215 4.31 1.301l.094.074zM16.866 12.904c-.285 0-.57-.002-.854.001-.082.001-.11-.026-.11-.107.003-.387.003-.773-.001-1.16-.001-.09.045-.101.118-.1h1.65c.16 0 .162 0 .162-.162 0-.55 0-1.101-.003-1.65 0-.085.024-.116.11-.115.382.004.76.005 1.142 0 .09-.001.119.03.119.12-.004.544-.004 1.088-.004 1.632 0 .209-.003.177.183.177h1.612c.126 0 .13.007.129.136-.002.37-.004.74 0 1.11 0 .096-.03.122-.125.122-.56-.003-1.121 0-1.681-.004-.098-.001-.122.031-.121.123.003.55.002 1.101.002 1.651 0 .149-.001.15-.156.15h-1.052c-.154 0-.154 0-.154-.149v-1.622c0-.151 0-.152-.147-.152l-.82-.001z"/></g></symbol><symbol viewBox="0 0 24.999758 25.079001" id="icon--help"><title>help</title><path d="M11.977 0c-.298 0-.6.004-.914.013-.158.006-.368.011-.523.019-.314.013-.469.021-.778.045-.615.045-1.164.104-1.743.191C7.011.425 6.21.615 5.37.933c-.6.227-1.145.5-1.635.832l-.163.111c-.19.14-.434.336-.604.494C1.645 3.575.8 6.017.457 7.979.061 10.24-.198 13.992.194 17.1c.393 3.109 1.94 5.791 5.19 6.867 1.13.414 2.354.67 3.744.848 1.417.168 2.812.264 4.161.264 2.192 0 4.257-.257 6.077-.887 1.592-.568 2.596-1.275 3.5-2.543.485-.682.895-1.555 1.19-2.462.83-2.601 1.034-5.438.91-8.599-.02-.472-.045-.83-.087-1.287a18.91 18.91 0 0 0-.32-2.17c-.027-.137-.018-.089-.048-.225-.377-1.629-.929-2.852-1.883-3.885a6.554 6.554 0 0 0-1.36-1.124 8.618 8.618 0 0 0-.349-.207c-.107-.06-.072-.041-.183-.099a9.945 9.945 0 0 0-.766-.355c-.482-.199-.95-.353-1.492-.499-1.365-.364-2.626-.541-4.222-.655A32.476 32.476 0 0 0 11.977 0z"/><path style="-inkscape-font-specification:&apos;sans-serif Bold&apos;" d="M13.617 15.457h-3.525v-.479q0-.8.322-1.416.322-.625 1.357-1.582l.625-.566q.557-.508.81-.957.265-.45.265-.899 0-.683-.47-1.064-.468-.39-1.308-.39-.79 0-1.709.331-.918.322-1.914.967V6.336q1.182-.41 2.158-.606.977-.195 1.885-.195 2.383 0 3.633.976 1.25.967 1.25 2.832 0 .957-.38 1.72-.382.751-1.3 1.62l-.625.557q-.664.605-.869.976-.205.362-.205.801v.44zm-3.525 1.445h3.525v3.477h-3.525v-3.477z" font-weight="700" font-size="20" font-family="sans-serif" letter-spacing="0" word-spacing="0" text-anchor="middle" fill="#fff"/></symbol><symbol viewBox="0 0 24.918692 24.999001" id="icon--linkedin"><title>linkedin</title><path d="M11.948 0c-.3 0-.604.004-.92.013-.157.005-.367.01-.522.018-.313.014-.467.021-.775.046-.613.045-1.16.103-1.736.19C6.99.423 6.191.613 5.352.93a7.881 7.881 0 0 0-1.632.828c-.098.066-.065.045-.16.111a7.017 7.017 0 0 0-.602.491C1.638 3.561.798 5.995.455 7.952c-.394 2.254-.652 5.993-.262 9.093.391 3.098 1.933 5.771 5.172 6.844 1.128.412 2.348.669 3.734.845 1.412.167 2.805.265 4.15.265 2.183 0 4.241-.256 6.054-.885 1.586-.565 2.587-1.27 3.49-2.534.482-.681.89-1.551 1.184-2.453.828-2.592 1.032-5.422.908-8.571-.02-.47-.045-.827-.087-1.282a18.994 18.994 0 0 0-.318-2.162c-.029-.138-.019-.09-.049-.225-.376-1.625-.926-2.843-1.878-3.872a6.43 6.43 0 0 0-1.357-1.12 9.62 9.62 0 0 0-.347-.206c-.106-.06-.07-.041-.18-.099a10.287 10.287 0 0 0-.764-.354A12.095 12.095 0 0 0 18.42.739C17.057.376 15.8.199 14.21.086A29.82 29.82 0 0 0 11.948 0z"/><g fill="#fff"><path d="M5.935 8.955h2.79v9h-2.79v-9zm1.44-4.5c.9 0 1.62.72 1.62 1.619 0 .9-.72 1.62-1.62 1.62-.9 0-1.62-.72-1.62-1.62 0-.81.72-1.619 1.62-1.619M10.524 8.955h2.7v1.26c.36-.72 1.26-1.44 2.61-1.44 2.79 0 3.33 1.891 3.33 4.32v4.95h-2.79v-4.41c0-1.08 0-2.43-1.44-2.43s-1.71 1.17-1.71 2.34v4.41h-2.79v-9h.09z"/></g></symbol><symbol viewBox="0 0 24 28.846001" id="icon--lock--green"><title>lock--green</title><path d="M21.001 9.988h-2.643V6.435A6.443 6.443 0 0 0 11.923 0a6.443 6.443 0 0 0-6.435 6.435v3.553H3a3 3 0 0 0-3 3v15.858h24V12.988a2.998 2.998 0 0 0-2.999-3zM8.489 6.436a3.439 3.439 0 0 1 3.435-3.435 3.439 3.439 0 0 1 3.435 3.435v3.553H8.49V6.436z" fill="#5fb755"/></symbol><symbol viewBox="0 0 24 28.846001" id="icon--lock"><title>lock</title><path d="M21.001 9.988h-2.643V6.435A6.443 6.443 0 0 0 11.923 0a6.443 6.443 0 0 0-6.435 6.435v3.553H3a3 3 0 0 0-3 3v15.858h24V12.988a2.998 2.998 0 0 0-2.999-3zM8.489 6.436a3.439 3.439 0 0 1 3.435-3.435 3.439 3.439 0 0 1 3.435 3.435v3.553H8.49V6.436z"/></symbol><symbol viewBox="0 0 48 48" id="icon--menu"><title>menu</title><path d="M9.099 37.15v-5.262h29.802v5.262H9.099zm0-10.518V21.37h29.802v5.262H9.099zm0-10.521v-5.262h29.802v5.262H9.099z"/></symbol><symbol viewBox="0 0 24.000616 24.081134" id="icon--ok"><title>ok</title><path d="M12.751 24.081c-1.214 0-2.523-.084-3.936-.25-1.42-.183-2.555-.439-3.572-.81-3.636-1.205-4.76-4.299-5.06-6.682C-.18 13.45.046 9.93.431 7.725.753 5.886 1.565 3.495 2.88 2.3c.162-.15.395-.342.592-.484l.16-.109A7.56 7.56 0 0 1 5.228.895C6.001.605 6.76.413 7.77.256A20.81 20.81 0 0 1 9.422.074c.292-.022.438-.03.736-.043.102-.006.234-.01.355-.014l.136-.004a28.775 28.775 0 0 1 3.014.067c1.624.115 2.784.297 4.003.623.544.146.986.294 1.433.48.233.096.53.231.742.344l.128.07c.153.085.292.166.392.23.507.314.946.677 1.337 1.103.89.961 1.456 2.127 1.837 3.777l.047.216c.132.623.234 1.317.304 2.062.04.433.062.771.083 1.217v.002c.131 3.296-.145 5.883-.866 8.141-.3.922-.7 1.748-1.154 2.39-.864 1.211-1.857 1.934-3.427 2.494-1.636.57-3.543.852-5.77.852z"/><g fill="#fff"><path d="M4.007 12.405c0-2.112 1.217-4.065 3.81-4.065 2.577 0 3.778 1.776 3.778 4.065 0 2.097-1.217 4.05-3.794 4.05s-3.794-1.776-3.794-4.05zm5.378 0c0-1.424-.4-2.48-1.585-2.48-1.184 0-1.568 1.057-1.568 2.48 0 1.425.384 2.45 1.584 2.45 1.185 0 1.57-1.025 1.57-2.45zM17.065 15.207l-1.84-2.529v3.65h-2.146V5.441h2.145v6.34l2.401-3.314h2.273l-2.673 3.554 1.777 2.353c.24.32.432.433.752.433.08 0 .112 0 .24-.017v1.521c-.24.063-.544.111-.736.111-.897 0-1.489-.256-2.193-1.216z"/></g></symbol><symbol viewBox="0 0 35 35" id="icon--placeholder"><title>placeholder</title><path d="M18.533 35.001c-1.765 0-3.667-.122-5.72-.365-2.067-.264-3.715-.637-5.193-1.176C2.335 31.71.702 27.213.266 23.75c-.528-4.203-.199-9.317.36-12.522.468-2.672 1.648-6.148 3.558-7.885.235-.219.574-.496.86-.703l.231-.16c.691-.467 1.45-.853 2.323-1.18C8.72.875 9.824.597 11.292.37a29.885 29.885 0 0 1 2.401-.264c.424-.033.637-.044 1.07-.063.148-.008.34-.013.516-.019l.198-.006a41.82 41.82 0 0 1 4.38.098c2.36.168 4.046.431 5.82.905.79.213 1.432.428 2.082.697.34.141.771.338 1.08.502l.185.1c.223.125.424.243.57.335a9.152 9.152 0 0 1 1.942 1.606c1.292 1.397 2.116 3.091 2.671 5.49l.07.314c.191.906.34 1.914.44 2.998.058.628.091 1.121.12 1.77l.001.001c.19 4.791-.21 8.551-1.258 11.833-.438 1.34-1.018 2.54-1.678 3.471-1.256 1.762-2.699 2.813-4.982 3.627-2.377.825-5.149 1.235-8.387 1.235zM16.753.973c-.406 0-.817.006-1.246.018l-.199.006c-.169.005-.353.01-.5.018-.424.018-.629.028-1.042.061-.863.063-1.58.142-2.327.255-1.396.216-2.443.478-3.498.876-.8.301-1.494.653-2.12 1.076l-.214.148a9.39 9.39 0 0 0-.765.627C3.11 5.634 2.023 8.881 1.584 11.395c-.547 3.133-.869 8.131-.354 12.232.402 3.186 1.892 7.32 6.71 8.915 1.421.518 3.002.875 4.99 1.13 5.667.67 10.143.401 13.667-.822 2.102-.749 3.368-1.667 4.512-3.272.605-.853 1.14-1.96 1.546-3.207 1.012-3.167 1.397-6.82 1.211-11.495-.028-.63-.06-1.11-.117-1.72a25.412 25.412 0 0 0-.424-2.886l-.066-.3c-.513-2.222-1.265-3.779-2.437-5.047a8.245 8.245 0 0 0-1.748-1.443 9.114 9.114 0 0 0-.453-.268L28.4 3.09c-.3-.159-.7-.34-1.012-.47a15.636 15.636 0 0 0-1.962-.657c-1.709-.457-3.342-.71-5.636-.874a40.683 40.683 0 0 0-3.036-.116z"/></symbol><symbol viewBox="0 0 23.999277 24.081135" id="icon--power"><title>power</title><path d="M12.751 24.081c-1.214 0-2.523-.084-3.936-.25-1.42-.183-2.555-.439-3.572-.81-3.636-1.205-4.759-4.299-5.06-6.682C-.18 13.45.046 9.93.431 7.725.753 5.886 1.565 3.495 2.88 2.3c.162-.15.395-.342.592-.484l.16-.109A7.576 7.576 0 0 1 5.227.895C6 .605 6.76.413 7.77.256A20.81 20.81 0 0 1 9.422.074c.292-.022.438-.03.736-.043.102-.006.234-.01.355-.014l.136-.004a28.75 28.75 0 0 1 3.013.067c1.624.115 2.784.297 4.003.623.544.146.986.294 1.433.48.233.096.531.231.742.344l.128.07c.153.085.292.166.391.23.507.314.946.677 1.337 1.103.89.961 1.456 2.127 1.838 3.777l.047.216c.132.623.234 1.317.303 2.062.04.433.062.771.083 1.217l.001.002c.13 3.296-.145 5.883-.866 8.141-.3.922-.7 1.748-1.154 2.39-.864 1.211-1.857 1.934-3.428 2.494-1.634.57-3.54.852-5.769.852z"/><path fill="#fff" d="M6.288 21.485L17.27 9.113l-3.888.057 4.331-6.574h-4.808l-4.76 9.205h3.142z"/></symbol><symbol viewBox="0 0 24.00062 24.081135" id="icon--print"><title>print</title><path d="M12.75 24.081c-1.214 0-2.523-.084-3.936-.25-1.42-.183-2.555-.439-3.572-.81C1.606 21.815.483 18.721.183 16.338-.18 13.447.046 9.93.431 7.725.753 5.886 1.565 3.495 2.88 2.3c.162-.15.395-.342.592-.484l.16-.109A7.56 7.56 0 0 1 5.228.895C6 .605 6.76.413 7.77.256A20.81 20.81 0 0 1 9.422.074c.292-.022.438-.03.736-.043.102-.006.234-.01.355-.014l.136-.004a28.769 28.769 0 0 1 3.014.067c1.624.115 2.783.297 4.003.623.544.146.986.294 1.433.48.233.097.53.232.742.345l.128.07c.153.085.292.166.392.23.507.314.946.677 1.336 1.103.89.961 1.456 2.127 1.838 3.777l.047.216c.132.623.234 1.317.304 2.062.04.433.062.771.083 1.217v.002c.131 3.296-.145 5.883-.865 8.141-.302.922-.7 1.748-1.155 2.39-.864 1.211-1.857 1.934-3.428 2.494-1.637.568-3.544.851-5.77.851z"/><g fill="#fff"><path d="M7.851 4.782h8.295v2.074H7.851V4.782zM19.257 7.893H4.741A1.04 1.04 0 0 0 3.704 8.93v5.185c0 .57.467 1.037 1.037 1.037h3.11v4.147h8.295v-4.147h3.111a1.04 1.04 0 0 0 1.037-1.037V8.93a1.04 1.04 0 0 0-1.037-1.036zm-13.479 3.11a1.037 1.037 0 1 1 0-2.073 1.037 1.037 0 0 1 0 2.073zm9.332 7.258H8.89v-5.185h6.22v5.185z"/></g></symbol><symbol viewBox="0 0 32 32" id="icon--printer"><title>printer</title><path d="M8 2h16v4H8V2zM30 8H2c-1.1 0-2 .9-2 2v10c0 1.1.9 2 2 2h6v8h16v-8h6c1.1 0 2-.9 2-2V10c0-1.1-.9-2-2-2zM4 14a2 2 0 1 1-.001-3.999A2 2 0 0 1 4 14zm18 14H10V18h12v10z"/></symbol><symbol id="icon--rss"><title>rss</title><path d="M0 866q0-55 39-94t94-39 94 39 39 94q0 56-39 94.5T133 999t-94-39-39-94zm0-335V340q179 0 331 88.5T571.5 669t88.5 331H468q0-194-137-331Q193 531 0 531zm0-339V0q203 0 388 79.5T707 293t213.5 319 79.5 388H808q0-164-64-314T571.5 428t-258-172T0 192z"/></symbol><symbol viewBox="0 0 22.499999 22.098999" id="icon--search--simple"><title>search--simple</title><path d="M24.52 6.801l-4.3-4.3c.51-.949.802-1.97.802-3.063 0-1.749-.656-3.353-1.896-4.52-1.24-1.239-2.843-1.896-4.52-1.896-1.75 0-3.353.656-4.52 1.896-1.24 1.24-1.896 2.844-1.896 4.52 0 1.75.656 3.354 1.896 4.521 1.239 1.24 2.843 1.896 4.52 1.896a6.292 6.292 0 0 0 3.426-1.02l4.229 4.227 2.26-2.26zM11.327 2.72A4.673 4.673 0 0 1 9.948-.56c0-1.247.459-2.428 1.378-3.28a4.67 4.67 0 0 1 3.28-1.379c1.246 0 2.428.46 3.28 1.378a4.673 4.673 0 0 1 1.379 3.28c0 1.247-.46 2.428-1.378 3.281a4.67 4.67 0 0 1-3.281 1.377c-1.247 0-2.361-.459-3.28-1.377z" fill="#fff"/><path d="M22.5 18.985l-5.926-5.926c.703-1.306 1.105-2.712 1.105-4.219 0-2.411-.904-4.621-2.611-6.228C13.36.904 11.151 0 8.84 0 6.429 0 4.219.904 2.612 2.612.904 4.319 0 6.529 0 8.84c0 2.41.904 4.62 2.612 6.228 1.708 1.708 3.917 2.611 6.228 2.611a8.67 8.67 0 0 0 4.721-1.406l5.826 5.826 3.113-3.114zM4.319 13.36c-1.175-1.175-1.898-2.802-1.898-4.52 0-1.718.633-3.345 1.898-4.521 1.175-1.175 2.803-1.898 4.52-1.898 1.718 0 3.345.633 4.52 1.898 1.175 1.176 1.898 2.803 1.898 4.521s-.633 3.345-1.898 4.52c-1.175 1.176-2.802 1.898-4.52 1.898-1.717 0-3.254-.633-4.52-1.898z"/></symbol><symbol viewBox="0 0 23.999619 24.081125" id="icon--search"><title>search</title><path d="M12.751 24.081c-1.214 0-2.523-.084-3.936-.25-1.42-.183-2.555-.439-3.572-.81-3.636-1.205-4.76-4.299-5.06-6.682C-.18 13.45.046 9.93.431 7.725.753 5.886 1.565 3.495 2.88 2.3c.162-.15.395-.342.592-.484l.16-.109A7.552 7.552 0 0 1 5.227.895C6 .605 6.76.413 7.77.256A20.783 20.783 0 0 1 9.421.074c.292-.022.438-.03.736-.043.102-.006.234-.01.355-.014l.136-.004a28.769 28.769 0 0 1 3.014.067c1.624.115 2.784.297 4.003.623.544.146.986.294 1.433.48.233.096.53.231.742.344l.128.07c.153.085.292.166.392.23.507.314.946.677 1.337 1.103.89.961 1.456 2.127 1.837 3.777l.047.216c.132.623.234 1.316.304 2.062.04.433.062.771.083 1.218v.001c.131 3.296-.145 5.883-.865 8.141-.3.922-.7 1.748-1.155 2.39-.864 1.211-1.857 1.934-3.427 2.494-1.635.57-3.542.852-5.77.852z"/><path d="M20.165 17.8l-4.3-4.3c.51-.949.801-1.97.801-3.063 0-1.749-.656-3.353-1.896-4.52-1.239-1.239-2.843-1.896-4.52-1.896-1.75 0-3.353.656-4.52 1.896-1.239 1.24-1.896 2.844-1.896 4.52 0 1.75.656 3.354 1.896 4.521 1.24 1.24 2.843 1.896 4.52 1.896a6.292 6.292 0 0 0 3.426-1.02l4.23 4.227 2.26-2.26zM6.97 13.718a4.673 4.673 0 0 1-1.378-3.28c0-1.247.46-2.428 1.378-3.28a4.67 4.67 0 0 1 3.28-1.379c1.246 0 2.428.46 3.281 1.378a4.673 4.673 0 0 1 1.378 3.28c0 1.247-.459 2.428-1.378 3.281a4.67 4.67 0 0 1-3.28 1.377c-1.248 0-2.362-.459-3.28-1.377z" fill="#fff"/></symbol><symbol viewBox="0 0 97 75" id="icon--sidn-logo--black"><title>sidn-logo--black</title><path d="M10.786 34.365c-2.539-.92-4.028-1.486-4.028-3.064 0-1.445 1.139-2.275 3.635-2.275 2.539 0 5.078.83 6.479 1.486v-5.777c-1.531-.568-3.983-1.227-7.004-1.227-5.691 0-9.851 2.541-9.851 8.057 0 4.555 2.584 6.655 5.34 7.838 4.204 1.836 6.086 1.879 6.086 3.98 0 1.578-1.271 2.539-4.158 2.539-2.714 0-5.21-.961-7.224-1.926v5.91c2.188.965 4.903 1.576 8.45 1.576 5.69 0 10.068-2.846 10.068-8.406 0-5.602-3.634-7.221-7.793-8.711zM96.908 31.664a73.122 73.122 0 0 0-.258-3.842c-.211-2.268-.521-4.434-.957-6.484-.088-.41-.059-.271-.148-.68-1.123-4.865-2.777-8.523-5.629-11.615a19.762 19.762 0 0 0-4.066-3.357 28.836 28.836 0 0 0-1.047-.619c-.323-.179-.213-.122-.543-.294a28.623 28.623 0 0 0-2.293-1.066 35.203 35.203 0 0 0-4.459-1.488C73.426 1.123 69.656.594 64.889.256A93.772 93.772 0 0 0 55.35.041c-.473.014-1.098.033-1.57.055-.936.041-1.398.068-2.32.137-1.842.133-3.48.309-5.208.572-3.019.465-5.411 1.037-7.928 1.984-1.795.68-3.423 1.498-4.891 2.49-.293.199-.195.131-.483.336-.574.412-1.293 1-1.805 1.473-3.956 3.598-6.228 9.717-7.504 16.77h6.219V51.134h-7.005c1.553 10.307 5.798 17.316 15.512 20.531 3.381 1.232 7.042 2.006 11.196 2.533 11.119 1.312 21.82 1.186 30.609-1.859 4.76-1.699 7.76-3.812 10.465-7.607 1.445-2.035 2.676-4.646 3.551-7.357 2.482-7.775 3.095-16.258 2.72-25.711zM59.621 41.932c-1.355 4.979-5.268 9.201-13.254 9.201h-9.808V23.904h9.938c10.027 0 13.705 6.564 13.705 13.615a16.835 16.835 0 0 1-.581 4.413zm29.697-9.604V51.155h-7.312l-2.518-4.049-.701-1.123-2.51-4.041-2.766-4.446c-.736-1.164-1.598-2.59-2.182-3.758-.076-.146-.162-.307-.225-.445.002.1.008.207.012.305.045 1.166.117 2.51.117 3.68v13.878h-6.041V23.879h7.223l1.822 2.92c2.096 3.178 4.1 6.373 5.928 9.502l.744 1.195c.41.68.84 1.432 1.24 2.168.451.834.867 1.646 1.168 2.297-.086-1.227-.043-3.107-.043-4.247V23.878h6.042v8.45z"/><path d="M45.971 29.417h-2.583V45.529h2.32c3.803 0 5.743-1.398 6.653-3.598.516-1.246.703-2.75.703-4.413 0-4.64-1.357-8.101-7.093-8.101z"/></symbol><symbol viewBox="0 0 74.035946 56.691581" id="icon--sidn-logo--fc-fill"><title>sidn-logo--fc-fill</title><path d="M63.684 31.722C60.331 20.84 53.621 7.649 49.75.19c3.605.256 6.451.656 9.541 1.483.035 7.375 3.83 20.007 4.393 30.048z" fill="#02bbb9"/><path d="M.033 37.729V33.26c1.523.729 3.409 1.456 5.462 1.456 2.185 0 3.145-.728 3.145-1.92 0-1.588-1.423-1.621-4.602-3.012C1.953 28.89 0 27.303 0 23.86c0-4.171 3.145-6.09 7.448-6.09 2.284 0 4.137.497 5.296.926v4.37c-1.059-.497-2.98-1.126-4.899-1.126-1.886 0-2.746.63-2.746 1.722 0 1.192 1.125 1.622 3.044 2.317 3.145 1.126 5.892 2.35 5.892 6.587 0 4.204-3.311 6.355-7.613 6.355-2.682 0-4.734-.463-6.389-1.192zM49.98 31.698v-9.24C41.163 16.71 31.667 10.704 24.238 5.357c-2.992 2.72-5.166 7.346-6.132 12.697h5.161v13.66l5.065-.005V18.052h7.515c7.579 0 10.359 4.966 10.359 10.295a12.86 12.86 0 0 1-.439 3.352l4.213-.001z" fill="#1268b3"/><path d="M58.36 31.708l-3.812-.006v6.97h-4.567v-6.974h-4.214c-1.025 3.766-3.982 6.975-10.02 6.975h-7.415v-6.965l-5.065.006v6.959h-5.161c1.173 7.775 4.248 13.074 11.593 15.505 9.56-6.812 21.483-12.01 30.56-19.415l-1.899-3.055z" fill="#f15d2c"/><path d="M60.258 34.763c-9.076 7.406-21 12.603-30.56 19.415 2.557.935 5.323 1.518 8.463 1.916 7.054-6.351 15.964-12.362 22.626-20.481l-.529-.85z" fill="#e78040"/><path d="M63.124 38.673h-.432l-1.904-3.061c-6.662 8.119-15.572 14.13-22.626 20.48 8.408.994 16.499.897 23.144-1.404-.631-5.27.932-10.183 1.818-16.015z" fill="#682c91"/><path d="M65.927 38.673h-2.804c-.886 5.832-2.448 10.746-1.818 16.016 3.598-1.284 5.867-2.883 7.912-5.75-1.992-3.92-2.525-6.985-3.29-10.266z" fill="#26abce"/><path d="M68.219 37.85v.822h-2.292c.765 3.28 1.298 6.348 3.29 10.266 1.092-1.54 2.021-3.516 2.686-5.565-1.713-2.267-2.709-3.935-3.684-5.522z" fill="#fff"/><path d="M73.96 23.937c-2.463 1.168-3.835 3.262-5.74 5.063v8.85c.975 1.588 1.971 3.256 3.684 5.522 1.874-5.875 2.338-12.288 2.056-19.435z" fill="#18984a"/><path d="M73.764 21.033c-2.428 1.756-3.768 4.366-5.545 6.71V29c1.905-1.801 3.277-3.895 5.74-5.063a54.277 54.277 0 0 0-.195-2.904z" fill="#fff"/><path d="M73.04 16.129c-2.211 2.476-3.43 5.662-4.82 8.714v2.9c1.777-2.344 3.117-4.954 5.545-6.71a42.835 42.835 0 0 0-.725-4.904z" fill="#f15d2c"/><path d="M68.219 24.844c1.392-3.053 2.609-6.24 4.82-8.714-.066-.311-.043-.206-.113-.513-.848-3.68-2.098-6.447-4.254-8.783-1.505 3.202-2.124 7.15-2.615 11.218h2.162v6.792z" fill="#002d6a"/><path d="M66.057 18.052c.491-4.067 1.11-8.016 2.615-11.218a14.868 14.868 0 0 0-3.076-2.538c-1.195 3.773-1.264 8.687-1.263 13.755h1.724z" fill="#48ba7f"/><path d="M63.961 18.052c-.14-5.263-.229-10.357.845-14.224-.243-.135-.158-.091-.408-.222-1.008 3.909-.836 9.09-.621 14.446h.184z" fill="#002d6a"/><path d="M63.651 18.052h.125c-.215-5.355-.387-10.537.621-14.446a22.466 22.466 0 0 0-1.734-.806c-1.008 5.91.58 14.9.988 23.103v-7.851z" fill="#48ba7f"/><path d="M63.651 28.51v-2.607C63.243 17.7 61.655 8.71 62.663 2.8a26.8 26.8 0 0 0-3.371-1.127c.034 7.376 3.829 20.007 4.393 30.048-.066-.925-.034-2.35-.034-3.21z" fill="#1268b3"/><path d="M63.684 31.722C60.331 20.84 53.621 7.649 49.75.19a70.886 70.886 0 0 0-7.211-.163C48.881 7.37 57.335 19.448 62.8 29.986c.343.63.656 1.243.884 1.736z" fill="#e78040"/><path d="M42.54.028c-.359.01-.832.026-1.188.042 4.264 4.67 9.353 11.18 13.988 17.982h.102l1.377 2.207h.001l4.47 7.167a.1.1 0 0 1 .011.017l.563.903c.311.512.636 1.082.937 1.639C57.336 19.449 48.882 7.37 42.54.028z" fill="#682c91"/><path d="M55.341 18.052C50.705 11.25 45.616 4.74 41.353.07c-.709.03-1.059.05-1.756.102 4.619 4.71 10.049 11.159 15.008 17.88h.736z" fill="#26abce"/><path d="M54.604 18.052C49.645 11.33 44.215 4.882 39.596.172a48.037 48.037 0 0 0-3.938.435c5.311 4.778 11.439 11.005 17.098 17.445h1.848z" fill="#18984a"/><path d="M49.98 18.052h2.776C47.097 11.612 40.969 5.385 35.658.607c-2.281.35-4.091.783-5.993 1.5 6.207 4.926 13.483 10.83 20.315 16.79v-.845z" fill="#fff"/><path d="M49.98 18.897c-6.832-5.96-14.108-11.864-20.315-16.791-1.356.512-2.586 1.132-3.697 1.882 7.1 5.294 15.859 11.369 24.012 17.292v-2.383z" fill="#f15d2c"/><path d="M49.98 21.282c-8.152-5.924-16.912-12-24.012-17.293-.222.15-.148.1-.364.254 7.174 5.314 16.086 11.384 24.376 17.28v-.241z" fill="#002d6a"/><path d="M64.334 18.052c-.001-5.068.067-9.982 1.263-13.755-.23-.146-.547-.333-.791-.468-1.074 3.866-.984 8.96-.845 14.224h.373z" fill="#fff"/><path d="M58.36 31.708l-2.09-3.362c-.559-.881-1.207-1.958-1.65-2.84-.055-.112-.121-.233-.17-.338.003.074.004.155.01.23.034.88.088 1.899.088 2.782v3.522l3.812.006z" fill="#1268b3"/><path d="M49.98 21.524C41.69 15.627 32.778 9.557 25.604 4.243c-.434.31-.979.756-1.366 1.113 7.428 5.347 16.924 11.354 25.742 17.103v-.935z" fill="#48ba7f"/><g><path d="M40.279 31.698l-6.784.005v2.733h1.755c2.875 0 4.341-1.072 5.029-2.738z" fill="#f15d2c"/></g><g><path d="M35.448 22.223h-1.953v9.48l6.784-.005c.39-.942.533-2.096.533-3.352 0-3.508-1.028-6.123-5.364-6.123z" fill="#1268b3"/></g><path d="M49.98 21.28V18.053H55.443l1.372 2.2 4.477 7.176.009.016.563.903c.311.513.636 1.083.937 1.64.343.63.655 1.244.884 1.736-.065-.927-.033-2.35-.033-3.21V18.054h4.569v20.621H62.693l-1.904-3.061-.529-.85-1.898-3.055-2.09-3.362c-.559-.88-1.206-1.958-1.65-2.84-.055-.111-.121-.232-.17-.337.003.074.004.155.01.23.034.88.088 1.899.088 2.782V38.674h-4.567V21.282z" fill="#fff"/><g><path fill="#fff" d="M18.106 18.053h5.161v20.62h-5.161z"/></g><path d="M35.846 18.052h-7.515V38.673h7.415c6.037 0 8.994-3.21 10.02-6.975.297-1.086.439-2.234.439-3.352.001-5.328-2.78-10.294-10.359-10.294zm4.433 13.646c-.688 1.666-2.154 2.738-5.029 2.738h-1.755V22.223h1.953c4.335 0 5.364 2.616 5.364 6.124 0 1.255-.143 2.409-.533 3.35z" fill="#fff"/></symbol><symbol viewBox="0 0 97 75" id="icon--sidn-logo--fc"><title>sidn-logo--fc</title><path fill="#02BBB9" d="M83.318 41.959C78.884 27.566 70.007 10.12 64.889.255c4.769.336 8.536.867 12.619 1.962.045 9.753 5.064 26.462 5.81 39.742z"/><path fill="#1268B3" d="M.06 49.906v-5.91c2.014.965 4.51 1.926 7.224 1.926 2.888 0 4.158-.961 4.158-2.54 0-2.101-1.882-2.144-6.086-3.979C2.6 38.218.016 36.12.016 31.566c0-5.517 4.159-8.058 9.851-8.058 3.021 0 5.473.658 7.004 1.228v5.777c-1.4-.657-3.939-1.487-6.479-1.487-2.496 0-3.635.83-3.635 2.276 0 1.577 1.489 2.144 4.028 3.064 4.159 1.49 7.793 3.11 7.793 8.71 0 5.561-4.378 8.407-10.068 8.407-3.547-.001-6.263-.613-8.45-1.577z"/><g fill="#1268B3"><path d="M71.234 41.936c1.744 0 3.43.004 5.043.006l-2.766-4.445c-.738-1.164-1.599-2.591-2.184-3.758a11.156 11.156 0 0 1-.213-.141c.045 1.167.117 2.51.117 3.68v4.659h.003zM65.193 41.93V29.708C53.529 22.104 40.972 14.162 31.145 7.087c-3.956 3.597-6.228 9.716-7.504 16.77h6.219v18.092l6.699-.008V23.903h9.938c10.026 0 13.704 6.564 13.704 13.615 0 1.479-.188 2.976-.58 4.412h5.572z"/></g><path fill="#F15D2C" d="M76.277 41.941c-1.613-.002-3.299-.006-5.043-.006v9.219h-6.041V41.93H59.62c-1.354 4.979-5.269 9.202-13.254 9.202h-9.808v-9.19l-6.699.008v9.184h-7.005c1.553 10.307 5.798 17.315 15.512 20.531 12.646-9.016 28.416-15.887 40.421-25.682l-2.51-4.042z"/><path fill="#E78040" d="M78.787 45.982c-12.005 9.795-27.775 16.666-40.421 25.682 3.381 1.232 7.042 2.006 11.194 2.531 9.33-8.398 21.112-16.35 29.926-27.09l-.699-1.123z"/><path fill="#682C91" d="M82.578 51.154h-.573l-2.519-4.049c-8.812 10.74-20.596 18.69-29.926 27.09 11.121 1.313 21.821 1.187 30.61-1.858-.83-6.969 1.237-13.468 2.408-21.183z"/><path fill="#26ABCE" d="M86.286 51.154h-3.708c-1.171 7.715-3.238 14.214-2.406 21.183 4.76-1.698 7.76-3.812 10.465-7.606-2.633-5.181-3.338-9.238-4.351-13.577z"/><path fill="#FFF" d="M89.316 50.068v1.086h-3.03c1.013 4.339 1.718 8.396 4.351 13.576 1.445-2.035 2.676-4.647 3.551-7.358-2.267-2.999-3.583-5.205-4.872-7.304z"/><path fill="#18984A" d="M96.906 31.664c-3.258 1.547-5.069 4.315-7.59 6.697v11.707c1.289 2.099 2.604 4.305 4.871 7.304 2.482-7.772 3.096-16.256 2.719-25.708z"/><path fill="#FFF" d="M96.648 27.822c-3.207 2.323-4.981 5.774-7.332 8.879v1.66c2.521-2.382 4.332-5.15 7.59-6.697a68.918 68.918 0 0 0-.258-3.842z"/><path fill="#F15D2C" d="M95.693 21.336l-.149-.678c-2.87 3.33-4.456 7.573-6.228 11.668v4.375c2.351-3.104 4.125-6.556 7.332-8.879-.21-2.269-.519-4.435-.955-6.486z"/><path fill="#002D6A" d="M89.316 23.878v8.448c1.771-4.095 3.356-8.339 6.228-11.668-1.123-4.866-2.776-8.525-5.628-11.617-1.988 4.236-2.811 9.459-3.459 14.837h2.859z"/><path fill="#48BA7F" d="M86.457 23.878c.648-5.378 1.471-10.601 3.459-14.837a19.789 19.789 0 0 0-4.066-3.357c-1.58 4.995-1.672 11.492-1.67 18.195l2.277-.001z"/><path fill="#002D6A" d="M83.686 23.878c-.187-6.958-.305-13.7 1.117-18.813-.322-.178-.213-.121-.544-.293-1.329 5.171-1.104 12.024-.819 19.106h.246z"/><path fill="#48BA7F" d="M83.273 23.878h.166c-.285-7.082-.512-13.936.818-19.106a28.054 28.054 0 0 0-2.29-1.066c-1.335 7.819.77 19.708 1.309 30.558V23.878h-.003z"/><path fill="#1268B3" d="M83.273 37.713v-3.45c-.539-10.85-2.643-22.739-1.308-30.558a35.578 35.578 0 0 0-4.459-1.488c.044 9.753 5.065 26.461 5.812 39.742-.088-1.227-.045-3.105-.045-4.246z"/><path fill="#E78040" d="M83.318 41.959C78.884 27.566 70.007 10.12 64.889.255A93.198 93.198 0 0 0 55.35.039c8.39 9.711 19.572 25.687 26.8 39.624.452.835.868 1.646 1.168 2.296z"/><path fill="#682C91" d="M72.416 23.878l1.822 2.919a208.964 208.964 0 0 1 5.928 9.501l.744 1.196c.41.679.84 1.431 1.24 2.168C74.922 25.726 63.738 9.75 55.35.04c-.473.014-1.099.034-1.57.056 5.641 6.176 12.373 14.787 18.503 23.783l.133-.001z"/><path fill="#26ABCE" d="M72.281 23.878C66.15 14.882 59.419 6.271 53.779.095c-.937.041-1.399.068-2.32.136 6.109 6.23 13.291 14.758 19.852 23.647h.97z"/><path fill="#18984A" d="M71.311 23.878C64.75 14.989 57.568 6.461 51.459.231c-1.843.133-3.48.308-5.208.572 7.021 6.323 15.128 14.558 22.612 23.075h2.448z"/><path fill="#FFF" d="M65.193 23.878h3.67C61.379 15.361 53.271 7.126 46.251.803c-3.019.465-5.411 1.037-7.928 1.985 8.21 6.517 17.832 14.324 26.871 22.208v-1.118z"/><path fill="#F15D2C" d="M65.193 24.997c-9.039-7.884-18.66-15.691-26.871-22.208-1.795.678-3.423 1.498-4.891 2.49 9.391 7.002 20.976 15.037 31.761 22.872v-3.154z"/><path fill="#002D6A" d="M65.193 28.15c-10.785-7.834-22.37-15.869-31.761-22.872-.293.199-.195.131-.483.336 9.49 7.03 21.277 15.056 32.244 22.858v-.322z"/><path fill="#FFF" d="M84.18 23.878c-.002-6.703.09-13.2 1.67-18.195a28.238 28.238 0 0 0-1.047-.618c-1.422 5.113-1.304 11.855-1.117 18.813h.494z"/><g fill="#48BA7F"><path d="M71.104 33.292l.013.304c.071.049.142.095.213.141-.077-.146-.162-.306-.226-.445zM65.193 28.473C54.229 20.67 42.439 12.645 32.949 5.615c-.574.412-1.293 1-1.805 1.472 9.827 7.075 22.385 15.017 34.049 22.621v-1.235z"/></g><path fill="#F15D2C" d="M52.361 41.93c-3.073 0-6.096.004-8.974.006v3.594h2.32c3.805-.001 5.743-1.4 6.654-3.6z"/><path fill="#1268B3" d="M45.971 29.417h-2.583v12.519c2.878-.002 5.9-.006 8.973-.006.517-1.246.703-2.748.703-4.412 0-4.641-1.357-8.101-7.093-8.101z"/></symbol><symbol viewBox="0 0 97 75" id="icon--sidn-logo--greyscale"><title>sidn-logo--greyscale</title><path fill="#868789" d="M83.318 41.961C78.884 27.568 70.007 10.121 64.888.257c4.768.336 8.537.867 12.619 1.961.046 9.754 5.067 26.461 5.811 39.743z"/><path fill="#1A171B" d="M.06 49.908v-5.91c2.014.965 4.51 1.926 7.224 1.926 2.888 0 4.158-.961 4.158-2.541 0-2.1-1.882-2.143-6.086-3.98C2.6 38.219.016 36.12.016 31.567c0-5.518 4.159-8.059 9.851-8.059 3.021 0 5.473.658 7.004 1.229v5.775c-1.4-.656-3.939-1.486-6.479-1.486-2.496 0-3.635.83-3.635 2.277 0 1.576 1.489 2.143 4.028 3.063 4.159 1.49 7.793 3.111 7.793 8.711 0 5.561-4.378 8.408-10.068 8.408-3.547-.001-6.262-.614-8.45-1.577z"/><g fill="#1A171B"><path d="M71.234 41.938c1.744 0 3.43.004 5.043.006l-2.766-4.445c-.736-1.164-1.598-2.592-2.182-3.76-.072-.045-.141-.092-.213-.141.045 1.168.117 2.51.117 3.68v4.66zM65.193 41.932V29.708C53.531 22.105 40.972 14.164 31.145 7.087c-3.956 3.598-6.228 9.717-7.504 16.77h6.219v18.094l6.699-.008v-18.04h9.938c10.027 0 13.705 6.564 13.705 13.616a16.81 16.81 0 0 1-.58 4.412l5.571.001z"/></g><path fill="#58585A" d="M76.277 41.943c-1.613-.002-3.299-.006-5.043-.006v9.219h-6.041v-9.225h-5.572c-1.355 4.98-5.268 9.203-13.254 9.203h-9.808v-9.191l-6.699.008v9.184h-7.005c1.553 10.307 5.798 17.314 15.512 20.531 12.645-9.016 28.417-15.887 40.42-25.682l-2.51-4.041z"/><path fill="#B0B2B3" d="M78.787 45.984c-12.004 9.795-27.775 16.666-40.42 25.682 3.381 1.232 7.042 2.006 11.196 2.531 9.328-8.398 21.111-16.35 29.926-27.09l-.702-1.123z"/><path fill="#1A171B" d="M82.578 51.156h-.572l-2.518-4.049c-8.814 10.74-20.598 18.691-29.926 27.09 11.119 1.314 21.82 1.186 30.609-1.859-.831-6.969 1.237-13.467 2.407-21.182z"/><path fill="#C5C6C8" d="M86.287 51.156h-3.709c-1.17 7.715-3.238 14.213-2.406 21.182 4.76-1.697 7.76-3.812 10.465-7.605-2.633-5.18-3.338-9.239-4.35-13.577z"/><path fill="#FFF" d="M89.318 50.07v1.086h-3.031c1.012 4.338 1.717 8.396 4.35 13.576 1.445-2.035 2.676-4.648 3.551-7.359-2.266-2.998-3.581-5.205-4.87-7.303z"/><path fill="#58585A" d="M96.908 31.666c-3.258 1.547-5.07 4.315-7.59 6.698V50.07c1.289 2.098 2.604 4.305 4.869 7.303 2.483-7.771 3.096-16.256 2.721-25.707z"/><path fill="#FFF" d="M96.65 27.824c-3.209 2.322-4.982 5.773-7.332 8.879v1.66c2.52-2.383 4.332-5.151 7.59-6.698a72.794 72.794 0 0 0-.258-3.841z"/><path fill="#58585A" d="M95.693 21.337c-.088-.41-.059-.271-.148-.678-2.871 3.328-4.457 7.572-6.227 11.668v4.375c2.35-3.106 4.123-6.557 7.332-8.879-.211-2.269-.521-4.435-.957-6.486z"/><path fill="#1A171B" d="M89.318 23.88v8.447c1.77-4.096 3.355-8.34 6.227-11.668-1.123-4.867-2.777-8.525-5.629-11.617-1.988 4.236-2.809 9.459-3.459 14.838h2.861z"/><path fill="#B0B2B3" d="M86.457 23.88c.65-5.379 1.471-10.602 3.459-14.838a19.762 19.762 0 0 0-4.066-3.357c-1.58 4.994-1.672 11.492-1.67 18.195h2.277z"/><path fill="#1A171B" d="M83.686 23.88c-.186-6.959-.305-13.701 1.117-18.814-.323-.178-.213-.121-.543-.293-1.33 5.172-1.105 12.025-.82 19.107h.246z"/><path fill="#B0B2B3" d="M83.275 23.88h.164c-.285-7.082-.51-13.936.82-19.107a28.623 28.623 0 0 0-2.293-1.066c-1.334 7.82.77 19.709 1.309 30.559V23.88z"/><path fill="#1A171B" d="M83.275 37.715v-3.449c-.539-10.85-2.643-22.739-1.309-30.559a35.524 35.524 0 0 0-4.459-1.488c.045 9.754 5.066 26.461 5.811 39.743-.086-1.228-.043-3.107-.043-4.247z"/><path fill="#B0B2B3" d="M83.318 41.961C78.884 27.568 70.007 10.121 64.888.257A93.199 93.199 0 0 0 55.349.04C63.74 9.751 74.922 25.728 82.15 39.666c.452.834.868 1.645 1.168 2.295z"/><path fill="#1A171B" d="M72.416 23.88l1.822 2.918c2.096 3.178 4.1 6.373 5.928 9.502l.744 1.197c.41.678.84 1.43 1.24 2.168C74.922 25.728 63.74 9.751 55.35.041a82.03 82.03 0 0 0-1.57.057c5.64 6.175 12.372 14.786 18.501 23.782h.135z"/><path fill="#C5C6C8" d="M72.281 23.88C66.152 14.884 59.42 6.273 53.779.097c-.936.039-1.398.066-2.32.135C57.568 6.462 64.75 14.99 71.311 23.88h.97z"/><path fill="#58585A" d="M71.311 23.88C64.75 14.99 57.568 6.462 51.459.232c-1.842.133-3.48.309-5.208.572 7.022 6.324 15.127 14.559 22.612 23.076h2.448z"/><path fill="#FFF" d="M65.193 23.88h3.67C61.379 15.362 53.273 7.128 46.251.804c-3.019.465-5.411 1.037-7.928 1.986 8.21 6.516 17.831 14.324 26.87 22.207V23.88z"/><path fill="#58585A" d="M65.193 24.998c-9.039-7.883-18.66-15.691-26.87-22.207-1.795.678-3.423 1.498-4.891 2.488 9.391 7.004 20.975 15.037 31.76 22.873v-3.154z"/><path fill="#1A171B" d="M65.193 28.152c-10.785-7.836-22.37-15.869-31.76-22.873-.293.199-.195.133-.483.338 9.49 7.029 21.279 15.055 32.244 22.857v-.322z"/><path fill="#FFF" d="M84.18 23.88c-.002-6.703.09-13.201 1.67-18.195a28.836 28.836 0 0 0-1.047-.619c-1.422 5.113-1.303 11.855-1.117 18.814h.494z"/><g fill="#B0B2B3"><path d="M71.105 33.294c.002.098.008.205.012.303.072.049.141.096.213.141-.076-.147-.162-.305-.225-.444zM65.193 28.474C54.229 20.671 42.44 12.646 32.95 5.617c-.574.412-1.293 1-1.805 1.471 9.827 7.076 22.386 15.018 34.048 22.621v-1.235z"/></g><path fill="#58585A" d="M52.361 41.932c-3.072 0-6.095.004-8.973.006v3.594h2.32c3.804-.001 5.743-1.399 6.653-3.6z"/><path fill="#1A171B" d="M45.971 29.417h-2.583v12.52c2.878-.002 5.901-.006 8.973-.006.516-1.246.703-2.748.703-4.412 0-4.641-1.357-8.102-7.093-8.102z"/></symbol><symbol viewBox="0 0 116 57" id="icon--sidnlabs-logo--fc"><title>sidnlabs-logo--fc</title><g fill-rule="nonzero"><path d="M63.684 32.03C60.332 21.148 53.621 7.957 49.751.499c3.605.256 6.451.656 9.541 1.482.034 7.377 3.829 20.008 4.392 30.049z" fill="#11bbb9"/><path d="M.033 38.038v-4.467c1.523.728 3.408 1.455 5.462 1.455 2.184 0 3.144-.727 3.144-1.92 0-1.588-1.423-1.621-4.601-3.012C1.952 29.2 0 27.612 0 24.17c0-4.171 3.145-6.091 7.448-6.091 2.283 0 4.137.497 5.296.926v4.371c-1.059-.497-2.98-1.127-4.9-1.127-1.886 0-2.746.63-2.746 1.723 0 1.191 1.125 1.621 3.045 2.316 3.145 1.126 5.892 2.35 5.892 6.587 0 4.204-3.311 6.356-7.614 6.356-2.681 0-4.734-.465-6.388-1.193zM49.98 32.006v-9.238c-8.817-5.75-18.313-11.756-25.742-17.103-2.991 2.719-5.166 7.346-6.132 12.697h5.161v13.66l5.065-.006V18.36h7.514c7.579 0 10.36 4.966 10.36 10.295 0 1.117-.143 2.265-.44 3.351h4.214z" fill="#1468b3"/><path d="M58.36 32.016l-3.813-.006v6.971H49.98v-6.975h-4.214c-1.025 3.766-3.982 6.975-10.019 6.975h-7.415v-6.965l-5.065.006v6.959h-5.161c1.173 7.775 4.248 13.074 11.593 15.506 9.559-6.813 21.483-12.01 30.559-19.416l-1.898-3.055z" fill="#f15d2c"/><path d="M60.258 35.071c-9.076 7.406-21 12.603-30.559 19.416 2.557.933 5.323 1.517 8.463 1.916 7.053-6.352 15.964-12.364 22.626-20.483l-.53-.849z" fill="#e88040"/><path d="M63.124 38.981h-.432l-1.904-3.061c-6.662 8.119-15.573 14.131-22.626 20.483 8.408.991 16.499.893 23.143-1.406-.63-5.27.933-10.184 1.819-16.016z" fill="#672c91"/><path d="M65.927 38.981h-2.803c-.886 5.832-2.449 10.746-1.819 16.016 3.598-1.284 5.867-2.883 7.912-5.75-1.992-3.918-2.525-6.985-3.29-10.266z" fill="#1cabce"/><path d="M68.219 38.161v.82h-2.292c.765 3.281 1.298 6.348 3.29 10.266 1.092-1.54 2.022-3.516 2.686-5.565-1.713-2.268-2.709-3.935-3.684-5.521z" fill="#fff"/><path d="M73.96 24.246c-2.463 1.169-3.835 3.263-5.741 5.064v8.851c.975 1.586 1.971 3.253 3.684 5.521 1.875-5.877 2.339-12.289 2.057-19.436z" fill="#139849"/><path d="M73.764 21.342c-2.428 1.757-3.767 4.366-5.545 6.712v1.256c1.906-1.801 3.278-3.895 5.741-5.064a55.403 55.403 0 0 0-.196-2.904z" fill="#fff"/><path d="M73.04 16.438c-2.211 2.475-3.43 5.662-4.821 8.714v2.902c1.778-2.346 3.117-4.955 5.545-6.712a42.586 42.586 0 0 0-.724-4.904z" fill="#f15d2c"/><path d="M68.219 25.152c1.392-3.052 2.61-6.239 4.821-8.714-.067-.31-.043-.206-.114-.513-.847-3.68-2.097-6.446-4.254-8.782-1.504 3.202-2.124 7.151-2.615 11.217h2.162v6.792z" fill="#002d6a"/><path d="M66.057 18.36c.491-4.066 1.111-8.015 2.615-11.217a14.878 14.878 0 0 0-3.076-2.539c-1.195 3.774-1.263 8.688-1.262 13.756h1.723z" fill="#48ba7f"/><path d="M63.96 18.36c-.139-5.262-.229-10.357.845-14.223-.243-.136-.158-.091-.408-.222-1.008 3.908-.836 9.09-.621 14.445h.184z" fill="#002d6a"/><path d="M63.651 18.36h.125c-.215-5.355-.387-10.537.621-14.445a22.47 22.47 0 0 0-1.734-.807c-1.008 5.912.58 14.902.988 23.104V18.36z" fill="#48ba7f"/><path d="M63.651 28.819v-2.607c-.408-8.202-1.996-17.192-.988-23.104a27.126 27.126 0 0 0-3.371-1.127c.034 7.377 3.829 20.008 4.392 30.049-.065-.926-.033-2.35-.033-3.211z" fill="#1468b3"/><path d="M63.684 32.03C60.332 21.148 53.621 7.957 49.751.499A70.317 70.317 0 0 0 42.54.337c6.341 7.342 14.795 19.42 20.26 29.956.343.631.656 1.245.884 1.737z" fill="#e88040"/><path d="M42.54.337c-.36.01-.832.025-1.188.041 4.264 4.67 9.353 11.18 13.988 17.982h.102l1.377 2.207h.001l4.47 7.167.01.017.564.904c.31.512.636 1.082.936 1.638C57.335 19.757 48.881 7.679 42.54.337z" fill="#672c91"/><path d="M55.34 18.36C50.705 11.558 45.616 5.049 41.352.378a55.27 55.27 0 0 0-1.756.101c4.619 4.712 10.049 11.16 15.008 17.881h.736z" fill="#1cabce"/><path d="M54.604 18.36C49.645 11.639 44.215 5.191 39.596.479a48.473 48.473 0 0 0-3.938.436C40.969 5.693 47.097 11.92 52.756 18.36h1.848z" fill="#139849"/><path d="M49.98 18.36h2.776C47.097 11.92 40.969 5.693 35.658.915c-2.281.351-4.091.783-5.993 1.5 6.207 4.926 13.483 10.83 20.315 16.791v-.846z" fill="#fff"/><path d="M49.98 19.206C43.148 13.245 35.872 7.341 29.665 2.415c-1.356.512-2.586 1.132-3.697 1.883 7.1 5.294 15.86 11.368 24.012 17.292v-2.384z" fill="#f15d2c"/><path d="M49.98 21.591C41.828 15.666 33.068 9.592 25.968 4.298c-.221.149-.148.099-.364.254C32.778 9.866 41.69 15.935 49.98 21.833v-.242z" fill="#002d6a"/><path d="M64.334 18.36c-.001-5.068.067-9.982 1.262-13.756a18.92 18.92 0 0 0-.791-.467c-1.074 3.866-.984 8.961-.845 14.223h.374z" fill="#fff"/><path d="M58.36 32.016l-2.09-3.361c-.559-.881-1.207-1.959-1.65-2.84-.055-.113-.121-.234-.17-.338.003.074.004.155.01.231.034.881.087 1.898.087 2.781v3.521l3.813.006z" fill="#1468b3"/><path d="M49.98 21.833C41.69 15.935 32.778 9.866 25.604 4.552c-.434.31-.979.756-1.366 1.113 7.429 5.347 16.925 11.353 25.742 17.103v-.935z" fill="#48ba7f"/><path d="M40.279 32.006l-6.784.006v2.733h1.755c2.875 0 4.341-1.073 5.029-2.739z" fill="#f15d2c"/><path d="M35.448 22.531h-1.953v9.481l6.784-.006c.389-.941.533-2.095.533-3.351 0-3.508-1.028-6.124-5.364-6.124z" fill="#1468b3"/><path d="M49.98 21.59v-3.23h5.463l1.372 2.201v-.001l4.477 7.175c.001.006.005.011.008.016l.564.903c.31.513.636 1.083.936 1.639.343.631.656 1.245.884 1.737-.065-.926-.033-2.35-.033-3.211V18.36h4.568v20.621h-5.527l-1.904-3.061-.53-.849-1.898-3.055-2.09-3.362c-.559-.88-1.206-1.958-1.65-2.839-.055-.113-.121-.234-.17-.338.003.074.004.155.01.231.034.881.087 1.898.087 2.781v10.492H49.98V21.59zM18.106 18.362h5.161v20.619h-5.161zM40.279 32.006c-.688 1.666-2.154 2.739-5.029 2.739h-1.755V22.531h1.953c4.336 0 5.364 2.616 5.364 6.124 0 1.256-.144 2.41-.533 3.351zM35.846 18.36h-7.514v20.621h7.415c6.037 0 8.994-3.209 10.019-6.975.297-1.086.44-2.234.44-3.351 0-5.329-2.781-10.295-10.36-10.295z" fill="#fff"/><path d="M78.366 20.957h2.435v9.122h4.054v1.953h-6.489V20.957zM92.587 27.874l-.923-2.846c-.214-.658-.427-1.297-.552-1.812h-.035a46.597 46.597 0 0 1-.57 1.812l-.96 2.846h3.04zm-2.773-6.917h2.72l4.052 11.075h-2.648l-.711-2.203h-4.318l-.748 2.203h-2.506l4.159-11.075zM102.133 30.131c1.085 0 1.672-.498 1.672-1.477 0-.995-.552-1.511-1.654-1.511h-1.529v2.988h1.511zm-.052-4.657c1.102 0 1.564-.498 1.564-1.352 0-.765-.481-1.262-1.547-1.262h-1.476v2.614h1.459zm-3.893-4.517h4.212c2.4 0 3.698 1.139 3.698 2.827 0 1.369-.835 2.205-1.743 2.453v.035c1.191.268 2.08 1.104 2.08 2.543 0 2.025-1.53 3.217-3.929 3.217h-4.318V20.957zM108.106 31.551v-2.115c.8.373 1.831.746 2.898.746 1.225 0 1.849-.424 1.849-1.243 0-.96-.836-1.065-2.506-1.796-1.139-.513-2.223-1.314-2.223-3.164 0-2.15 1.617-3.163 3.857-3.163 1.192 0 2.205.284 2.774.498v2.062c-.569-.268-1.582-.588-2.596-.588-1.101 0-1.617.41-1.617 1.121 0 .746.622.977 1.742 1.404 1.44.729 3.11 1.049 3.11 3.538 0 2.149-1.688 3.323-3.946 3.323-1.386 0-2.488-.248-3.342-.623z" fill="#1468b3"/></g></symbol><symbol viewBox="0 0 16 28" id="icon--sort--asc"><title>sort--asc</title><path d="M16 11q0 .406-.297.703T15 12H1q-.406 0-.703-.297T0 11t.297-.703l7-7Q7.594 3 8 3t.703.297l7 7Q16 10.594 16 11z"/></symbol><symbol viewBox="0 0 16 28" id="icon--sort--desc"><title>sort--desc</title><path d="M16 17q0 .406-.297.703l-7 7Q8.406 25 8 25t-.703-.297l-7-7Q0 17.406 0 17t.297-.703T1 16h14q.406 0 .703.297T16 17z"/></symbol><symbol viewBox="0 0 16 28" id="icon--sort"><title>sort</title><path d="M16 17q0 .406-.297.703l-7 7Q8.406 25 8 25t-.703-.297l-7-7Q0 17.406 0 17t.297-.703T1 16h14q.406 0 .703.297T16 17zm0-6q0 .406-.297.703T15 12H1q-.406 0-.703-.297T0 11t.297-.703l7-7Q7.594 3 8 3t.703.297l7 7Q16 10.594 16 11z"/></symbol><symbol viewBox="0 0 32 32" id="icon--terminology"><title>terminology</title><path d="M28 4v26H7a3 3 0 1 1 0-6h19V0H6C3.8 0 2 1.8 2 4v24c0 2.2 1.8 4 4 4h24V4h-2z"/><path d="M7.002 26H7a1 1 0 0 0 0 2h18.999v-2H7.002z"/></symbol><symbol viewBox="0 0 24.918692 24.999001" id="icon--twitter"><title>twitter</title><path d="M11.948 0c-.3 0-.604.004-.92.013-.157.005-.367.01-.522.019-.313.013-.467.021-.775.045-.613.045-1.16.103-1.736.19C6.99.423 6.191.614 5.352.93a7.93 7.93 0 0 0-1.632.828l-.16.111a6.842 6.842 0 0 0-.602.492C1.638 3.561.798 5.995.455 7.952c-.394 2.254-.652 5.994-.262 9.093.391 3.098 1.933 5.771 5.172 6.844 1.128.412 2.348.669 3.734.846a35.73 35.73 0 0 0 4.15.264c2.183 0 4.241-.256 6.054-.884 1.586-.566 2.587-1.271 3.49-2.535.482-.681.89-1.55 1.184-2.453.828-2.592 1.032-5.422.908-8.571-.02-.47-.045-.827-.087-1.282a18.943 18.943 0 0 0-.318-2.161c-.029-.139-.019-.091-.049-.226-.376-1.625-.926-2.843-1.878-3.872a6.43 6.43 0 0 0-1.357-1.12 9.62 9.62 0 0 0-.347-.206c-.106-.06-.07-.041-.18-.099a10.287 10.287 0 0 0-.764-.354A11.928 11.928 0 0 0 18.42.74C17.057.376 15.8.2 14.21.086A30.348 30.348 0 0 0 11.948 0z"/><path d="M19.701 8c-.5.2-1.1.4-1.7.5.6-.4 1.1-.9 1.3-1.6-.6.3-1.2.6-1.9.699-.5-.6-1.3-.899-2.2-.899-1.6 0-3 1.3-3 3 0 .2 0 .5.1.7-2.4-.301-4.6-1.4-6.1-3.2-.2.399-.4.899-.4 1.5 0 1 .5 1.899 1.3 2.5-.5 0-.9-.101-1.3-.4 0 1.4 1 2.601 2.4 2.9-.3.1-.5.1-.8.1-.2 0-.4 0-.6-.1.4 1.2 1.5 2 2.8 2.1-1 .8-2.3 1.3-3.7 1.3h-.7c1.3.801 2.9 1.301 4.5 1.301 5.5 0 8.4-4.5 8.4-8.4v-.4c.7-.502 1.2-1.002 1.6-1.601z" fill="#fff"/></symbol><symbol viewBox="0 0 23.998778 24.077999" id="icon--url"><title>url</title><path d="M11.499 0c-.286 0-.577.004-.877.013-.152.006-.354.011-.503.019-.301.013-.45.021-.746.043-.59.044-1.117.1-1.673.184-.968.15-1.737.333-2.545.638-.577.218-1.1.481-1.57.799l-.156.107a7.038 7.038 0 0 0-.58.474C1.579 3.433.769 5.778.439 7.662c-.38 2.171-.63 5.772-.252 8.757.376 2.984 1.862 5.559 4.982 6.592 1.084.397 2.26.644 3.594.814 1.36.16 2.7.253 3.994.253 2.104 0 4.087-.247 5.834-.852 1.529-.545 2.492-1.224 3.36-2.441.465-.655.859-1.493 1.14-2.363.799-2.497.995-5.222.876-8.255-.02-.453-.043-.797-.083-1.234a17.921 17.921 0 0 0-.307-2.084c-.026-.132-.018-.086-.046-.216-.362-1.563-.892-2.737-1.807-3.729a6.259 6.259 0 0 0-1.307-1.079 6.519 6.519 0 0 0-.334-.198c-.103-.058-.07-.039-.175-.096-.212-.11-.506-.246-.735-.341C18.71 1 18.26.851 17.74.711 16.43.361 15.22.191 13.688.082A29.983 29.983 0 0 0 11.498 0z"/><path d="M12.823 14.38a3.17 3.17 0 0 1-2.25-.929.752.752 0 1 1 1.063-1.065c.657.654 1.72.651 2.373 0l2.77-2.771a1.675 1.675 0 0 0 0-2.37c-.627-.631-1.738-.631-2.371 0l-1.112 1.112a.753.753 0 0 1-1.065-1.065l1.112-1.112c1.199-1.198 3.305-1.196 4.5.001.598.599.928 1.398.928 2.249 0 .852-.33 1.65-.928 2.25l-2.771 2.771a3.168 3.168 0 0 1-2.25.929z" fill="#fff"/><path d="M8.406 18.797c-.815 0-1.63-.31-2.25-.929a3.188 3.188 0 0 1 0-4.5l2.77-2.771c1.2-1.197 3.305-1.196 4.5.002a.753.753 0 0 1-1.065 1.062c-.627-.628-1.74-.63-2.371.001l-2.77 2.771a1.68 1.68 0 0 0 0 2.372 1.68 1.68 0 0 0 2.37-.002l1.114-1.113a.753.753 0 0 1 1.065 1.065l-1.114 1.113a3.171 3.171 0 0 1-2.25.929z" fill="#fff"/></symbol><symbol viewBox="0 0 24.00014 24.082001" id="icon--whois"><title>whois</title><path d="M11.505 0c-.287 0-.579.004-.882.013-.15.005-.354.011-.503.018-.3.013-.45.021-.747.043-.59.044-1.117.1-1.672.185-.968.149-1.737.334-2.546.639a7.496 7.496 0 0 0-1.57.798l-.156.107a7.038 7.038 0 0 0-.58.474C1.58 3.433.77 5.778.44 7.662c-.38 2.171-.629 5.773-.252 8.759.376 2.984 1.862 5.561 4.982 6.593 1.084.396 2.261.644 3.595.814 1.36.16 2.701.254 3.995.254 2.104 0 4.087-.247 5.833-.852 1.53-.545 2.492-1.225 3.361-2.441.464-.655.858-1.493 1.141-2.363.798-2.496.993-5.221.874-8.255-.02-.453-.043-.796-.083-1.235a17.854 17.854 0 0 0-.307-2.082c-.027-.133-.018-.087-.047-.217-.362-1.564-.892-2.738-1.807-3.729a6.188 6.188 0 0 0-1.308-1.079 5.785 5.785 0 0 0-.335-.198c-.103-.058-.068-.039-.174-.096-.21-.11-.505-.245-.735-.341a11.486 11.486 0 0 0-1.43-.479c-1.313-.351-2.524-.52-4.054-.629A27.75 27.75 0 0 0 11.505 0z"/><g fill="#fff"><path d="M2.203 15.941c0-.844.722-1.565 1.565-1.565.963 0 1.565.722 1.565 1.565s-.722 1.564-1.565 1.564c-.964 0-1.565-.721-1.565-1.564zM7.5 7.874h2.528v.723c.481-.361 1.324-.963 2.648-.963 2.288 0 3.13 1.444 3.13 3.371v6.261h-2.528v-5.899c0-1.084-.36-1.686-1.445-1.686-.602 0-1.204.24-1.565.602v6.983H7.5V7.874H7.5zM18.095 4.262h2.528v13.123h-2.528V4.262z"/></g></symbol><symbol viewBox="0 0 24.000139 24.081999" id="icon--wrench"><title>wrench</title><path d="M11.505 0c-.287 0-.579.004-.882.013-.15.005-.354.011-.503.018-.3.013-.45.021-.747.043-.59.044-1.117.1-1.672.185-.968.15-1.737.334-2.546.639a7.496 7.496 0 0 0-1.57.798l-.156.107a7.038 7.038 0 0 0-.58.474C1.58 3.433.77 5.778.44 7.662c-.38 2.171-.629 5.773-.252 8.759.376 2.984 1.862 5.561 4.982 6.593 1.084.396 2.261.644 3.595.813 1.36.161 2.701.255 3.995.255 2.104 0 4.087-.247 5.833-.852 1.53-.545 2.492-1.225 3.361-2.441.464-.655.858-1.493 1.141-2.363.798-2.496.993-5.221.874-8.255-.02-.453-.043-.796-.083-1.235a17.854 17.854 0 0 0-.307-2.082c-.027-.133-.018-.087-.047-.217-.362-1.564-.892-2.738-1.807-3.729a6.188 6.188 0 0 0-1.308-1.079 5.785 5.785 0 0 0-.335-.198c-.103-.058-.068-.039-.174-.096-.21-.11-.505-.245-.735-.341a11.486 11.486 0 0 0-1.43-.479C16.428.364 15.217.194 13.687.086A27.75 27.75 0 0 0 11.505 0z"/><path d="M4.256 17.333l7.88-7.88a3.906 3.906 0 0 1 5.95-4.434L15.29 6.595l-.018 2.043 1.76 1.037 2.713-1.529.001.067a3.905 3.905 0 0 1-5.18 3.691l-7.869 7.869-2.44-2.44z" fill="#fff"/></symbol><symbol viewBox="0 0 24.000497 24.999" id="icon--youtube"><title>youtube</title><path d="M11.509 0c-.29 0-.582.005-.886.014-.151.005-.354.01-.503.018-.301.013-.45.021-.747.045-.59.045-1.117.104-1.672.191-.97.156-1.737.346-2.545.663a7.49 7.49 0 0 0-1.572.828l-.155.11a6.859 6.859 0 0 0-.58.492C1.58 3.562.769 5.995.44 7.952c-.38 2.254-.628 5.994-.252 9.093s1.862 5.772 4.98 6.845c1.087.412 2.262.669 3.597.845 1.36.167 2.702.264 3.996.264 2.104 0 4.085-.256 5.832-.884 1.528-.566 2.492-1.27 3.36-2.535.465-.68.858-1.55 1.142-2.453.797-2.592.994-5.422.875-8.57a26.198 26.198 0 0 0-.084-1.282 19.469 19.469 0 0 0-.306-2.162c-.028-.138-.02-.09-.047-.225-.362-1.625-.892-2.844-1.81-3.872a6.182 6.182 0 0 0-1.306-1.12 6.933 6.933 0 0 0-.334-.206c-.102-.061-.067-.041-.174-.1a10.199 10.199 0 0 0-.735-.354 11.186 11.186 0 0 0-1.431-.497C16.43.375 15.219.199 13.688.085A28.697 28.697 0 0 0 11.508 0z"/><path d="M19.072 9.5s-.097-1-.578-1.5c-.578-.6-1.156-.6-1.445-.6-2.022-.2-5.008-.2-5.008-.2s-2.985 0-5.008.2c-.29 0-.867 0-1.444.6-.482.5-.674 1.5-.674 1.5s-.096 1.2-.096 2.4V13c0 1.2.192 2.4.192 2.4s.096 1 .578 1.5c.578.6 1.252.6 1.637.6 1.156.101 4.912.2 4.912.2s3.082 0 5.104-.2c.289 0 .867 0 1.444-.6.385-.5.578-1.5.578-1.5s.096-1.2.096-2.4v-1.1c-.096-1.2-.288-2.4-.288-2.4zm-9.066 5.426v-5.25l4.936 2.625-4.936 2.625z" fill="#fff"/></symbol></svg>